<svg width="18" height="20" viewBox="0 0 18 20" fill="none" xmlns="http://www.w3.org/2000/svg">
<path d="M16.8035 6.96427C16.1335 6.22427 15.1235 5.79427 13.7235 5.64427V4.88427C13.7235 3.51427 13.1435 2.19427 12.1235 1.27427C11.6202 0.812823 11.025 0.462927 10.3771 0.247511C9.72909 0.032095 9.04292 -0.0439787 8.3635 0.0242742C5.9735 0.254274 3.9635 2.56427 3.9635 5.06427V5.64427C2.5635 5.79427 1.5535 6.22427 0.883496 6.96427C-0.0865043 8.04427 -0.0565042 9.48427 0.0534958 10.4843L0.753496 16.0543C0.963496 18.0043 1.7535 20.0043 6.0535 20.0043H11.6335C15.9335 20.0043 16.7235 18.0043 16.9335 16.0643L17.6335 10.4743C17.7435 9.48427 17.7635 8.04427 16.8035 6.96427ZM8.5035 1.41427C8.98813 1.36559 9.47758 1.41913 9.94023 1.57143C10.4029 1.72372 10.8284 1.97138 11.1894 2.29841C11.5503 2.62544 11.8387 3.02456 12.0357 3.46998C12.2328 3.91539 12.3343 4.39721 12.3335 4.88427V5.58427H5.3535V5.06427C5.3535 3.28427 6.8235 1.57427 8.5035 1.41427ZM5.2635 11.1543H5.2535C4.7035 11.1543 4.2535 10.7043 4.2535 10.1543C4.2535 9.60427 4.7035 9.15427 5.2535 9.15427C5.8135 9.15427 6.2635 9.60427 6.2635 10.1543C6.2635 10.7043 5.8135 11.1543 5.2635 11.1543ZM12.2635 11.1543H12.2535C11.7035 11.1543 11.2535 10.7043 11.2535 10.1543C11.2535 9.60427 11.7035 9.15427 12.2535 9.15427C12.8135 9.15427 13.2635 9.60427 13.2635 10.1543C13.2635 10.7043 12.8135 11.1543 12.2635 11.1543Z" fill="white"/>
</svg>
