<svg width="34" height="29" viewBox="0 0 34 29" fill="none" xmlns="http://www.w3.org/2000/svg">
<path d="M2.83779 13.6362L2.83784 13.6362L3.08747 13.3865C5.9558 14.1042 8.10347 16.7313 8.10347 19.8469C8.10347 22.0384 8.77787 24.2986 11.1066 25.2601C11.6094 25.4677 12.1046 25.7009 12.6011 25.9348C12.7655 26.0123 12.9301 26.0898 13.0951 26.1665C13.3184 26.2702 13.5423 26.3723 13.7653 26.4688C12.5783 26.8248 11.1588 26.9696 9.7186 26.8192C7.76677 26.6153 5.82666 25.8748 4.39678 24.4457C2.68665 22.7083 1.67035 20.6086 1.40114 18.6388C1.13182 16.6682 1.61077 14.8633 2.83779 13.6362Z" fill="#D17842" stroke="#141921"/>
<path d="M5.96094 14.7003L5.92728 14.6708L5.88892 14.6478C5.17702 14.2207 4.61126 13.8681 4.12278 13.5636C3.82613 13.3788 3.55798 13.2116 3.30291 13.0564C3.11321 12.9409 2.9335 12.8337 2.75931 12.7339C3.84568 12.5545 5.11738 12.5299 6.41311 12.7394C8.26597 13.0389 10.1323 13.8107 11.5711 15.2495C13.309 16.9874 14.3386 19.0873 14.6143 21.0566C14.89 23.0261 14.4113 24.8307 13.1844 26.0576C13.0934 26.1486 13.0285 26.2129 12.9696 26.2652C10.0328 25.6139 7.86306 22.9794 7.86306 19.8469C7.86306 19.7478 7.86331 19.65 7.86356 19.5535C7.8659 18.654 7.86795 17.8647 7.66141 17.131C7.42226 16.2814 6.91969 15.5392 5.96094 14.7003Z" fill="#D17842" stroke="#141921"/>
<path d="M14.1658 26.0342L14.1656 26.0341C11.931 24.744 10.559 22.3321 10.199 19.4229C9.83922 16.5145 10.4998 13.144 12.2988 10.0281C15.0987 5.1785 19.7148 2.48657 23.7167 2.66863C22.571 3.5874 21.5659 4.72397 20.8203 6.01545C19.1974 8.82647 18.7793 11.9905 19.6151 15.1099C20.8306 19.6462 18.6577 24.2427 14.722 26.3341C14.5288 26.2435 14.3555 26.1438 14.1658 26.0342Z" fill="#D17842" stroke="#141921"/>
<path d="M25.5997 3.64193L25.5997 3.64195L25.6035 3.64409C27.8682 4.92553 29.2393 7.33512 29.5911 10.2451C29.9429 13.1552 29.2664 16.5307 27.4666 19.6481C24.7204 24.4046 20.0145 26.6006 15.9737 26.3696C16.335 26.1488 16.6937 25.923 17.0231 25.6882C17.7536 25.1675 18.435 24.5441 18.9451 23.6607C20.568 20.8497 20.9861 17.6856 20.1503 14.5662C18.9153 9.95752 20.4614 5.17523 24.3219 3.10831C24.3393 3.11513 24.3571 3.12212 24.3753 3.12926C24.5286 3.18945 24.71 3.26069 24.9097 3.34126C25.2408 3.47483 25.5109 3.59065 25.5997 3.64193Z" fill="#D17842" stroke="#141921"/>
</svg>
