<svg width="20" height="20" viewBox="0 0 20 20" fill="none" xmlns="http://www.w3.org/2000/svg">
<path d="M9.58317 17.5C13.9554 17.5 17.4998 13.9556 17.4998 9.58332C17.4998 5.21107 13.9554 1.66666 9.58317 1.66666C5.21092 1.66666 1.6665 5.21107 1.6665 9.58332C1.6665 13.9556 5.21092 17.5 9.58317 17.5Z" fill="#52555A"/>
<path d="M17.7501 18.3333C17.6001 18.3333 17.4501 18.275 17.3418 18.1667L15.7918 16.6167C15.5668 16.3917 15.5668 16.025 15.7918 15.7917C16.0168 15.5667 16.3835 15.5667 16.6168 15.7917L18.1668 17.3417C18.3918 17.5667 18.3918 17.9333 18.1668 18.1667C18.0501 18.275 17.9001 18.3333 17.7501 18.3333Z" fill="#52555A"/>
</svg>
